<svg width="374" height="64" viewBox="0 0 374 64" fill="none" xmlns="http://www.w3.org/2000/svg">
<path d="M373.31 27.927C370.324 27.927 367.342 27.9232 364.355 27.9232C363.81 27.9232 363.795 27.942 363.795 28.4757C363.795 31.159 363.795 33.8424 363.795 36.522C363.795 41.528 363.795 46.5339 363.795 51.5398C363.795 51.7202 363.795 51.9006 363.78 52.0772C363.769 52.2238 363.697 52.2952 363.554 52.3102C363.434 52.3253 363.314 52.3253 363.197 52.3253C360.587 52.3253 357.977 52.3253 355.367 52.3253C355.277 52.3253 355.186 52.3253 355.096 52.3215C354.852 52.3027 354.788 52.2426 354.769 51.987C354.758 51.8066 354.761 51.6262 354.761 51.4496C354.761 43.9106 354.761 36.3754 354.761 28.8365C354.761 28.7012 354.761 28.5659 354.761 28.4306C354.754 27.9683 354.716 27.9345 354.235 27.927C354.115 27.9232 353.994 27.927 353.874 27.927C351.204 27.927 348.533 27.927 345.863 27.927C345.698 27.927 345.532 27.927 345.371 27.9082C345.198 27.8894 345.13 27.818 345.115 27.6489C345.104 27.5136 345.104 27.3783 345.104 27.243C345.104 25.2963 345.104 23.3457 345.104 21.399C345.104 20.7187 345.104 20.7188 345.769 20.7188C350.045 20.7188 354.318 20.7188 358.594 20.7188C363.272 20.7188 367.955 20.7188 372.633 20.7188C372.859 20.7188 373.084 20.7263 373.306 20.73C373.31 23.1315 373.31 25.5293 373.31 27.927Z" fill="white"/>
<path d="M253.354 36.4131C253.291 36.6123 253.317 36.7777 253.317 36.9355C253.313 39.6489 253.317 42.3623 253.317 45.0758C253.317 47.248 253.317 49.424 253.317 51.5963C253.317 51.7616 253.313 51.927 253.294 52.0886C253.279 52.2352 253.204 52.2991 253.057 52.3141C252.937 52.3254 252.817 52.3254 252.696 52.3254C250.312 52.3254 247.924 52.3254 245.539 52.3254C245.434 52.3254 245.329 52.3254 245.223 52.3179C245.035 52.2991 244.96 52.2314 244.941 52.036C244.926 51.8556 244.93 51.6752 244.93 51.4986C244.93 44.2452 244.93 36.9881 244.93 29.7348C244.93 26.9763 244.93 24.2177 244.93 21.4592C244.93 21.2938 244.93 21.1285 244.949 20.9669C244.964 20.8241 245.039 20.7527 245.182 20.7339C245.302 20.7188 245.423 20.7188 245.543 20.7188C247.645 20.7188 249.744 20.7188 251.846 20.7188C251.907 20.7188 251.967 20.7226 252.027 20.7188C252.26 20.7038 252.429 20.7978 252.546 21.0007C252.689 21.2487 252.843 21.4855 252.993 21.7298C254.735 24.586 256.472 27.4385 258.21 30.2948C259.801 32.9067 261.391 35.5187 262.986 38.1269C263.118 38.3448 263.268 38.5478 263.411 38.7582C263.419 38.7657 263.437 38.7658 263.456 38.7695C263.573 38.7169 263.614 38.5966 263.671 38.4952C265.344 35.6728 267.018 32.8466 268.691 30.0204C269.534 28.6035 270.376 27.1867 271.219 25.7661C272.121 24.244 273.024 22.722 273.926 21.2037C274.209 20.7301 274.156 20.7188 274.776 20.7188C276.849 20.7188 278.917 20.7188 280.989 20.7188C281.125 20.7188 281.26 20.7226 281.396 20.7339C281.531 20.7452 281.621 20.8241 281.636 20.9594C281.655 21.1059 281.663 21.2563 281.663 21.4066C281.666 22.7408 281.666 24.0749 281.67 25.4091C281.681 33.3539 281.689 41.2988 281.704 49.2436C281.704 50.0517 281.742 50.8597 281.749 51.6714C281.757 52.3254 281.745 52.3291 281.106 52.3291C278.752 52.3291 276.394 52.3291 274.039 52.3291C273.964 52.3291 273.889 52.3291 273.814 52.3291C273.46 52.3141 273.411 52.2652 273.392 51.9007C273.385 51.7504 273.389 51.6 273.389 51.4497C273.377 46.4438 273.366 41.4378 273.355 36.4319C273.355 36.2665 273.355 36.1049 273.355 35.902C273.197 35.9509 273.159 36.0711 273.103 36.1651C272.426 37.2963 271.753 38.4313 271.076 39.5625C269.571 42.0842 268.063 44.606 266.555 47.1315C266.202 47.7253 265.844 48.3116 265.502 48.9129C265.367 49.1459 265.194 49.2549 264.923 49.2549C263.844 49.2474 262.764 49.2474 261.681 49.2549C261.391 49.2587 261.211 49.1384 261.064 48.8941C260.451 47.8794 259.827 46.8722 259.21 45.865C257.721 43.4372 256.228 41.0132 254.738 38.5854C254.37 37.9841 254.005 37.3827 253.633 36.7814C253.565 36.6649 253.512 36.5371 253.354 36.4131Z" fill="white"/>
<path d="M341.892 36.553C341.892 41.5439 341.892 46.5348 341.892 51.5257C341.892 51.7061 341.892 51.8865 341.873 52.0631C341.858 52.236 341.783 52.3037 341.617 52.3187C341.512 52.33 341.406 52.33 341.301 52.33C339.188 52.33 337.07 52.33 334.957 52.33C334.43 52.33 334.434 52.3262 334.088 51.9053C332.805 50.3569 331.523 48.816 330.24 47.2677C329.187 45.9974 328.142 44.7233 327.089 43.4568C325.991 42.1302 324.885 40.8035 323.787 39.4769C322.858 38.357 321.933 37.237 321 36.1208C320.921 36.0269 320.865 35.8389 320.707 35.9028C320.59 35.9479 320.643 36.1171 320.643 36.2336C320.639 36.7597 320.639 37.2821 320.639 37.8083C320.639 42.3482 320.639 46.8918 320.639 51.4318C320.639 51.6122 320.643 51.7925 320.628 51.9692C320.605 52.2473 320.537 52.3074 320.27 52.3262C320.18 52.3337 320.09 52.33 320 52.33C317.45 52.33 314.9 52.33 312.35 52.33C312.245 52.33 312.139 52.33 312.034 52.3225C311.842 52.3037 311.771 52.2398 311.752 52.0406C311.737 51.8602 311.741 51.6798 311.741 51.5032C311.741 46.1214 311.741 40.7434 311.741 35.3617C311.741 30.7616 311.741 26.1578 311.741 21.5578C311.741 21.3623 311.748 21.1669 311.767 20.9752C311.778 20.8399 311.865 20.7573 312 20.7422C312.121 20.731 312.241 20.7272 312.357 20.7272C314.471 20.7272 316.588 20.7272 318.702 20.7272C318.747 20.7272 318.792 20.7309 318.837 20.7272C319.086 20.7084 319.262 20.8174 319.417 21.0053C319.842 21.5315 320.274 22.0463 320.703 22.565C321.831 23.9254 322.963 25.2859 324.091 26.6501C325.182 27.9655 326.273 29.2809 327.363 30.5962C328.311 31.7387 329.259 32.8775 330.207 34.02C330.993 34.967 331.775 35.9141 332.557 36.8612C332.651 36.9777 332.749 37.0904 332.85 37.2032C332.877 37.2333 332.926 37.2595 332.963 37.2595C333.012 37.2558 333.027 37.2032 333.031 37.1581C333.035 37.0078 333.038 36.8574 333.038 36.7071C333.038 32.3589 333.038 28.0144 333.038 23.6661C333.038 22.9483 333.038 22.2267 333.038 21.5089C333.038 21.4187 333.038 21.3285 333.038 21.2383C333.046 20.7685 333.08 20.7272 333.558 20.7272C335.284 20.7234 337.006 20.7272 338.732 20.7272C339.586 20.7272 340.444 20.7234 341.297 20.7272C341.843 20.7309 341.884 20.7685 341.888 21.3172C341.892 21.8734 341.888 22.4259 341.888 22.9821C341.892 27.4995 341.892 32.0244 341.892 36.553Z" fill="white"/>
<path d="M287.195 52.3216C285.785 52.3216 284.374 52.3216 282.964 52.3216C282.829 52.3216 282.693 52.3141 282.562 52.2953C282.501 52.2878 282.456 52.2239 282.475 52.16C282.505 52.0623 282.546 51.9646 282.592 51.8706C283.002 51.0852 283.411 50.3035 283.825 49.5218C284.171 48.8716 284.525 48.2289 284.867 47.5788C285.54 46.3085 286.206 45.0307 286.883 43.7604C287.755 42.1181 288.632 40.4795 289.508 38.8409C289.831 38.2321 290.151 37.6233 290.474 37.0107C291.4 35.2631 292.321 33.5118 293.25 31.7642C293.964 30.415 294.687 29.0658 295.405 27.7166C296.214 26.1946 297.022 24.6725 297.831 23.1504C298.192 22.4777 298.557 21.805 298.918 21.1323C298.951 21.0646 298.989 21.0007 299.027 20.9368C299.091 20.8278 299.188 20.7602 299.316 20.7489C299.437 20.7376 299.557 20.7339 299.677 20.7339C302.483 20.7339 305.288 20.7376 308.094 20.7339C308.677 20.7339 308.685 20.8128 308.44 21.2713C307.771 22.5265 307.101 23.7855 306.432 25.0408C306.108 25.6496 305.785 26.2585 305.465 26.871C304.773 28.1827 304.089 29.498 303.393 30.8096C302.479 32.5309 301.561 34.2484 300.648 35.9697C300.35 36.5259 300.057 37.0821 299.764 37.6383C299.064 38.965 298.368 40.2916 297.669 41.6183C296.849 43.1704 296.025 44.7188 295.206 46.2672C294.438 47.7103 293.675 49.1535 292.908 50.5966C292.675 51.0326 292.441 51.4685 292.212 51.9045C292.189 51.9458 292.167 51.9834 292.148 52.0247C292.058 52.2202 291.911 52.3254 291.685 52.3141C291.565 52.3104 291.445 52.3141 291.324 52.3141C289.955 52.3179 288.575 52.3179 287.195 52.3216C287.195 52.3179 287.195 52.3179 287.195 52.3216Z" fill="url(#paint0_linear_5038_31139)"/>
<path d="M312.467 10.2109C315.047 10.2109 317.627 10.2109 320.207 10.2109C320.342 10.2109 320.477 10.2109 320.613 10.2147C320.669 10.2147 320.744 10.2109 320.767 10.2748C320.793 10.35 320.722 10.3725 320.669 10.3988C320.041 10.6882 319.417 10.9738 318.789 11.2595C317.969 11.6315 317.149 11.9998 316.329 12.3681C315.577 12.7064 314.825 13.0409 314.073 13.3791C313.362 13.6986 312.651 14.018 311.94 14.3412C311.105 14.717 310.274 15.0928 309.439 15.4687C308.702 15.8031 307.965 16.1376 307.228 16.4721C306.092 16.9832 304.956 17.4906 303.824 18.0055C303.031 18.3625 302.241 18.727 301.451 19.0878C300.797 19.3847 300.139 19.6816 299.484 19.9785C299.443 19.9973 299.398 20.0086 299.356 20.0199C299.3 20.0349 299.236 19.9597 299.259 19.9033C299.3 19.7906 299.345 19.6816 299.398 19.5726C300.142 18.0505 300.891 16.5322 301.635 15.0139C302.327 13.6008 303.019 12.1878 303.711 10.7747C303.982 10.2222 303.986 10.2222 304.595 10.2222C307.22 10.2109 309.842 10.2109 312.467 10.2109Z" fill="#53CFD2"/>
<path fill-rule="evenodd" clip-rule="evenodd" d="M2.46596 20.4219C2.63865 20.4219 15.258 20.4219 15.4971 20.4219C15.7717 20.4219 16.1037 20.4219 16.4934 20.4219C16.8653 20.4219 17.3435 20.4219 17.8749 20.4219C18.4062 20.4219 19.0173 20.4219 19.6947 20.4219C20.3855 20.4219 21.1692 20.4219 22.0459 20.4219C22.9226 20.4219 23.8923 20.4219 24.9816 20.4219C26.0576 20.4219 46.4611 20.4219 47.7629 20.4219H68.99C71.2615 20.4219 73.0946 21.272 74.516 22.9457C75.924 24.6195 76.3889 26.5589 75.924 28.7507C75.924 28.7507 75.8045 29.3484 75.5122 30.5705C75.2466 31.7793 74.7683 33.9312 74.0378 37.0396C73.6525 38.5805 72.8157 39.869 71.5404 40.8785C70.2652 41.9014 68.7642 42.3929 67.0905 42.3929C67.0772 42.3929 67.0639 42.3929 67.0107 42.3929C66.9842 42.3929 66.9045 42.3929 66.8248 42.3929C66.7274 42.3929 66.6034 42.3929 66.4528 42.3929C66.3067 42.3929 66.1075 42.3929 65.8684 42.3929C65.6204 42.3929 65.3237 42.3929 64.9784 42.3929C64.6064 42.3929 64.2079 42.3929 63.7164 42.3929C63.2471 42.3929 62.698 42.3929 62.0693 42.3929C61.4582 42.3929 60.7542 42.3929 59.9705 42.3929C59.1735 42.3929 58.2835 42.3929 57.3005 42.3929C56.3308 42.3929 55.2415 42.3929 54.0726 42.3929C52.877 42.3929 51.5885 42.3929 50.1805 42.3929C50.1805 42.3929 50.1805 42.3796 50.1805 42.3663C50.1672 42.3929 50.1406 42.446 50.1273 42.5257C50.1141 42.5921 50.1008 42.6718 50.0742 42.7781C50.0477 42.8711 50.0211 43.0172 49.9945 43.15C49.9547 43.2962 49.9148 43.4688 49.8617 43.6681C49.8218 43.8806 49.7554 44.0932 49.7023 44.3456C49.6226 44.5979 49.5694 44.8769 49.4897 45.1957C49.4233 45.5012 49.3303 45.8466 49.2506 46.2451C49.1577 46.6303 49.0647 47.0554 48.9584 47.5203C48.8654 47.9852 48.7326 48.49 48.613 49.0346C48.4802 49.5793 48.3474 50.1638 48.2012 50.8146C48.0418 51.4523 47.8824 52.1297 47.7098 52.847C47.7098 52.847 47.7097 52.847 47.6965 52.847C47.6965 52.847 47.6699 52.847 47.6168 52.847C47.5902 52.847 47.5105 52.847 47.4175 52.847C47.3112 52.847 47.1651 52.847 46.9792 52.847C46.8065 52.847 46.5806 52.847 46.3017 52.847C46.036 52.847 45.6906 52.847 45.2789 52.847C44.8936 52.847 44.4154 52.847 43.8575 52.847C43.3262 52.847 42.6974 52.847 41.9713 52.847C41.2672 52.847 40.4436 52.847 39.5536 52.847C39.5536 52.8337 39.5536 52.8205 39.5669 52.7673C39.5669 52.723 39.5846 52.6611 39.6201 52.5814C39.6334 52.5017 39.6599 52.3821 39.7131 52.2227C39.7662 52.0633 39.806 51.864 39.8592 51.6249C39.9123 51.3726 39.9787 51.0803 40.0717 50.7084C40.1381 50.363 40.2444 49.9512 40.3772 49.4597C40.4968 48.9682 40.6163 48.4236 40.7757 47.7993C40.9351 47.175 41.0945 46.4444 41.2805 45.6473C41.4665 44.8636 41.6923 43.9736 41.9314 42.9774C42.1572 41.9944 42.4229 40.9051 42.7151 39.7362C43.0074 38.5406 43.2996 37.2389 43.645 35.8042L43.8841 34.8212H51.987L51.9605 34.8478H65.6425C66.134 34.8478 66.4528 34.622 66.599 34.1571C66.599 34.1571 67.0373 32.4302 67.8875 28.9898C67.9539 28.6842 67.8742 28.4186 67.6749 28.206C67.489 27.9669 67.2366 27.8607 66.931 27.8607C66.9178 27.8607 66.8912 27.8607 66.8513 27.8607C66.8248 27.8607 66.7584 27.8607 66.6787 27.8607C66.5857 27.8607 66.4661 27.8607 66.32 27.8607C66.1783 27.8607 65.9923 27.8607 65.7621 27.8607C65.523 27.8607 65.2175 27.8607 64.8721 27.8607C64.5267 27.8607 64.1282 27.8607 63.6766 27.8607C63.2161 27.8607 62.6803 27.8607 62.0693 27.8607H60.2229V27.8208H55.2415V27.8607C55.2282 27.8607 55.2017 27.8607 55.1618 27.8607C55.1353 27.8607 55.0688 27.8607 54.9891 27.8607C54.8961 27.8607 54.7766 27.8607 54.6305 27.8607C54.4976 27.8607 54.2851 27.8607 54.046 27.8607C53.8202 27.8607 53.5147 27.8607 53.1959 27.8607C52.8505 27.8607 52.4387 27.8607 52.0003 27.8607C51.5221 27.8607 50.9908 27.8607 50.3797 27.8607C49.782 27.8607 49.0912 27.8607 48.3208 27.8607H6.7167L6.7964 27.5419L7.26133 25.7087L2.46596 20.4219ZM50.1805 42.3663C50.1805 42.3265 50.1938 42.2866 50.1938 42.2866C50.1938 42.2866 50.1805 42.2999 50.1805 42.3397C50.1805 42.3397 50.1805 42.353 50.1805 42.3663ZM141.342 42.353H136.254C136.241 42.4062 136.241 42.446 136.214 42.4991C136.201 42.5656 136.174 42.6585 136.148 42.7515C136.13 42.8578 136.099 42.9818 136.055 43.1235C136.028 43.2829 135.975 43.4423 135.948 43.6415C135.895 43.8275 135.855 44.0533 135.789 44.3057C135.736 44.5581 135.683 44.837 135.603 45.1691C135.523 45.4747 135.444 45.8466 135.364 46.2185C135.271 46.5905 135.178 47.0155 135.045 47.4672C134.939 47.9454 134.819 48.4502 134.7 48.9815C134.58 49.5394 134.447 50.1239 134.301 50.7615C134.155 51.4124 133.996 52.0899 133.836 52.8072H125.773L130.024 34.8212H151.504C151.995 34.8212 152.327 34.6087 152.487 34.1571C152.487 34.1571 152.885 32.4302 153.722 28.9765C153.762 28.671 153.695 28.4319 153.483 28.1927C153.297 27.9536 153.058 27.8341 152.779 27.8341H131.698L132.163 25.7751L132.269 25.4962L127.686 20.4219H154.785C157.016 20.4219 158.836 21.272 160.231 22.9457C161.626 24.6328 162.117 26.5589 161.665 28.7507C161.665 28.7507 161.519 29.3484 161.254 30.5572C160.988 31.766 160.496 33.9047 159.806 37.013C159.421 38.5672 158.597 39.869 157.335 40.852C156.073 41.8615 154.599 42.353 152.938 42.353H149.989L162.874 63.8192H154.24L141.342 42.353ZM136.267 42.26C136.267 42.2733 136.254 42.2866 136.254 42.3397C136.254 42.3397 136.267 42.3265 136.267 42.3132C136.267 42.2999 136.267 42.2733 136.267 42.26ZM136.241 42.353H136.254C136.254 42.353 136.254 42.3486 136.254 42.3397C136.241 42.353 136.241 42.353 136.241 42.353ZM164.242 20.4219H197.504L195.685 27.8075H185.257L179.97 52.847H172.266L177.659 27.8075H166.912L167.776 24.314L164.242 20.4219ZM26.1904 32.8553C28.3689 32.8553 30.1223 33.7054 31.4241 35.3924C32.7259 37.0794 33.1111 39.0056 32.6063 41.2106C32.6063 41.2106 32.6063 41.2106 32.6063 41.2239C32.6063 41.2372 32.6063 41.2505 32.5931 41.2903C32.5931 41.3169 32.5798 41.37 32.5665 41.4497C32.5532 41.5029 32.5134 41.6224 32.4868 41.7553C32.4602 41.9014 32.4204 42.0741 32.354 42.2733C32.3008 42.4991 32.2344 42.7515 32.1547 43.057C32.0883 43.3759 31.9953 43.7478 31.889 44.1596C31.7961 44.5847 31.6632 45.0629 31.5304 45.6208C31.3975 46.1654 31.2514 46.7897 31.092 47.4805C30.6669 49.0745 29.8301 50.3497 28.5681 51.346C27.3106 52.3467 25.8494 52.847 24.1846 52.847C24.1713 52.847 24.158 52.847 24.1049 52.847C24.065 52.847 23.9986 52.847 23.9056 52.847C23.8126 52.847 23.6665 52.847 23.5071 52.847C23.3211 52.847 23.1219 52.847 22.8562 52.847C22.5905 52.847 22.2585 52.847 21.86 52.847C21.488 52.847 21.0098 52.847 20.4785 52.847C19.9471 52.847 19.3494 52.847 18.6586 52.847C17.9679 52.847 17.1841 52.847 16.3207 52.847C15.4617 52.847 14.492 52.847 13.4116 52.847C12.3356 52.847 11.1534 52.847 9.85162 52.847C8.52327 52.847 7.10193 52.847 5.54775 52.847C4.00686 52.847 2.33313 52.847 0.5 52.847C0.5 52.8337 0.500001 52.8205 0.513284 52.7673C0.513284 52.7275 0.526566 52.6611 0.553134 52.5681C0.566417 52.4884 0.619553 52.3688 0.64612 52.2094C0.699254 52.0367 0.739102 51.8242 0.80552 51.5851C0.871938 51.3061 0.951641 51.0006 1.03134 50.6287C1.11104 50.2567 1.20403 49.8184 1.32358 49.3003C1.45642 48.8088 1.58925 48.2111 1.74865 47.5469C1.92134 46.8827 2.09403 46.1521 2.28 45.3285C2.28 45.3285 2.28 45.3285 2.29328 45.3285C2.29328 45.3285 2.33313 45.3285 2.37298 45.3285C2.41283 45.3285 2.46597 45.3285 2.54567 45.3285C2.63865 45.3285 2.7582 45.3285 2.90432 45.3285C3.05044 45.3285 3.23641 45.3285 3.4888 45.3285C3.71462 45.3285 4.00686 45.3285 4.35223 45.3285C4.68432 45.3285 5.06954 45.3285 5.54775 45.3285C5.99939 45.3285 6.53073 45.3285 7.12849 45.3285C7.73954 45.3285 8.43028 45.3285 9.20073 45.3285C9.97117 45.3285 10.8213 45.3285 11.7777 45.3285C12.7209 45.3285 13.7703 45.3285 14.9127 45.3285C16.0683 45.3285 17.3303 45.3285 18.6985 45.3285C20.0401 45.3285 21.5279 45.3285 23.1219 45.3285C23.5735 45.3285 23.8923 45.1027 24.0783 44.6245C24.0783 44.6112 24.0783 44.5847 24.0783 44.5448C24.0916 44.5182 24.0916 44.4518 24.1049 44.3987C24.1447 44.3057 24.1713 44.1861 24.1979 44.0267C24.251 43.8939 24.2908 43.6814 24.344 43.4688C24.4104 43.2297 24.4635 42.9641 24.5432 42.6187C24.6362 42.2733 24.7159 41.8881 24.8089 41.4232C24.9417 41.1442 24.9019 40.8785 24.7292 40.6394C24.5565 40.4136 24.344 40.2808 24.0385 40.2808C24.0252 40.2808 24.0119 40.2808 23.9853 40.2808C23.9322 40.2808 23.8923 40.2808 23.8259 40.2808C23.7462 40.2808 23.6399 40.2808 23.4805 40.2808C23.3477 40.2808 23.1485 40.2808 22.9359 40.2808C22.6968 40.2808 22.4444 40.2808 22.1256 40.2808C21.8201 40.2808 21.4216 40.2808 20.9832 40.2808C20.5582 40.2808 20.0578 40.2808 19.4822 40.2808C18.911 40.2808 18.2601 40.2808 17.5295 40.2808C16.8122 40.2808 16.0019 40.2808 15.0986 40.2808C14.2086 40.2808 13.2389 40.2808 12.163 40.2808C9.98446 40.2808 8.24431 39.4705 6.92924 37.8233C5.80014 36.3754 5.3485 34.7283 5.57432 32.8553H26.1904Z" fill="white"/>
<path d="M201.643 20.4219H213.561H213.587H213.639H213.665H213.691H213.717H213.743H213.795H213.821H213.847H213.873H213.899H213.924H213.976H214.002H214.028H214.054H214.08H214.262C214.47 20.4219 214.703 20.4219 214.989 20.4219C215.223 20.4219 215.56 20.4219 215.95 20.4219C216.365 20.4219 216.807 20.4219 217.378 20.4219C217.923 20.4219 218.546 20.4219 219.248 20.4219C219.957 20.4219 220.754 20.4219 221.636 20.4219C222.519 20.4219 223.532 20.4219 224.648 20.4219C225.739 20.4219 226.959 20.4219 228.284 20.4219C229.634 20.4219 231.105 20.4219 232.698 20.4219C234.308 20.4219 236.022 20.4219 237.891 20.4219V20.4479C237.891 20.4479 237.891 20.4999 237.891 20.5259C237.891 20.5519 237.865 20.6299 237.839 20.734C237.805 20.8207 237.77 20.942 237.735 21.0981C237.701 21.2541 237.64 21.4709 237.554 21.7483C237.502 21.9823 237.398 22.2944 237.294 22.6586C237.216 23.0487 237.112 23.4908 236.956 23.985C236.853 24.5051 236.697 25.1033 236.541 25.7795C236.359 26.4557 236.151 27.1839 235.944 28.0422H235.918C235.918 28.0422 235.892 28.0422 235.866 28.0422C235.831 28.0422 235.771 28.0422 235.684 28.0422C235.597 28.0422 235.476 28.0422 235.321 28.0422C235.191 28.0422 234.983 28.0422 234.723 28.0422C234.49 28.0422 234.178 28.0422 233.84 28.0422C233.503 28.0422 233.061 28.0422 232.62 28.0422C232.153 28.0422 231.607 28.0422 230.984 28.0422C230.378 28.0422 229.677 28.0422 228.881 28.0422H226.414H226.388H226.362H226.284H226.258H226.232H226.18H226.154H226.077H226.051H225.999H225.947H225.895H225.869H225.817H225.765H225.713H225.661H225.609H225.557H225.531H225.479H225.427H225.376H225.35H225.272H225.22H225.194H225.142H225.09H225.038H224.986H224.934H224.882H224.856H224.804H224.726H224.7H224.648H224.571H224.545H224.493H224.415H224.389H224.337H224.259H224.233H224.181H224.129H224.077H224.025H223.973H223.895H223.869H223.818H223.74H223.714H223.662H223.61H223.532H223.506H223.454H223.376H223.324H223.298H223.22H223.168H223.116H223.039H223.013H222.961H222.883H222.831H222.779H222.727H222.675H222.623H222.545H222.493H222.467H222.389H222.337H222.286H222.208H222.156H222.104H222.026H222H221.948H221.87H221.818H221.766H221.688H221.636H221.584H221.507H221.455H221.377H221.325H221.273H221.195H221.143H221.117H221.039H220.987H220.935H220.857H220.805H220.754H220.676H220.624H220.52H220.468H220.416H220.338H220.286H220.234H220.156H220.104H220.027H219.975H219.923H219.845H219.793H219.741H219.663H219.585H219.507H219.455H219.403H219.325H219.273H219.222H219.144H219.066H218.988H218.936H218.884H218.806H218.754H218.65H218.598H218.546H218.469H218.417H218.313H218.261H218.209H218.131H218.079H217.975H217.923H217.871H217.793H217.716H217.638H217.586H217.534H217.43H217.378H217.3H217.222H217.144H217.092H217.014H216.937H216.885H216.781H216.729H216.677H216.573H216.521H216.443H216.365H216.287H216.235H216.132H216.08H216.002H215.924H215.872H215.768H215.716H215.612H215.56H215.508H215.405H215.353H215.249H215.197H215.093H215.041H214.937H214.885H214.807H214.729H214.652H206.005L206.057 27.7041L206.55 25.8315L201.643 20.4219ZM213.847 33.1658H213.873H213.899H213.924H213.976H214.002H214.028H214.054H214.08H214.132H214.158H214.184H214.21H214.236H214.262H214.314H214.34H214.366H214.392H214.418H214.444H214.496H214.522H214.548H214.574H214.6H214.652H214.677H214.703H214.729H214.755H214.807H214.833H214.859H214.885H214.911H214.937H214.989H215.015H215.041H215.067H215.093H215.119H215.171H215.197H215.223H215.249H215.275H215.327H215.353H215.379H215.405H215.431H215.456H215.508H215.534H215.56H215.586H215.612H215.664H215.69H215.716H215.742H215.768H215.794H215.846H215.872H215.898H215.924H215.95H216.002H216.028H216.054H216.08H216.106H216.132H216.184H216.209H216.235H216.261H216.287H216.339H216.365H216.391H216.417H216.443H216.469H216.521H216.547H216.573H216.599H216.625H216.677H216.703H216.729H216.755H216.781H216.807H216.859H216.885H216.911H216.937H216.963H217.014H217.04H217.066H217.092H217.118H217.144H217.196H217.222H217.248H217.274H217.3H217.352H217.378H217.404H217.43H217.456H217.482H217.534H217.56H217.586H217.612H217.638H217.69H217.716H217.741H217.767H217.793H217.819H217.871H217.897H217.923H217.949H217.975H218.027H218.053H218.079H218.105H218.131H218.157H218.209H218.235H218.261H218.287H218.313H218.365H218.391H218.417H218.443H218.469H218.495H218.546H218.572H218.598H218.624H218.65H218.676H218.728H218.754H218.78H218.806H218.832H218.884H218.91H218.936H218.962H218.988H219.014H219.066H219.092H219.118H219.144H219.17H219.222H219.248H219.273H219.299H219.325H219.351H219.403H219.429H219.455H219.481H219.507H219.559H219.585H219.611H219.637H219.663H219.689H219.741H219.767H219.793H219.819H219.845H219.897H219.923H219.949H219.975H220.001H220.078H220.104H220.13H220.156H220.182H220.234H220.26H220.286H220.312H220.338H220.364H220.442H220.468H220.494H220.52H220.572H220.598H220.624H220.676H220.702H220.754H220.78H220.805H220.831H220.909H220.935H220.961H220.987H221.013H221.039H221.117H221.143H221.169H221.195H221.247H221.299H221.325H221.351H221.377H221.455H221.481H221.507H221.533H221.61H221.636H221.662H221.688H221.766H221.792H221.818H221.844H221.922H221.948H221.974H222.026H222.052H222.104H222.156H222.182H222.208H222.286H222.312H222.337H222.389H222.441H222.467H222.519H222.545H222.571H222.649H222.675H222.701H222.779H222.805H222.857H222.883H222.909H222.987H223.013H223.039H223.116H223.142H223.194H223.22H223.298H223.324H223.35H223.402H223.454H223.506H223.532H223.584H223.636H223.662H223.714H223.74H223.818H223.844H223.895H223.921H223.999H224.025H224.077H224.129H224.181H224.207H224.259H224.311H224.363H224.389H224.467H224.493H224.545H224.597H224.648H224.7H224.726H224.804H224.83H224.882H224.934H224.986H225.038H225.064H225.142H225.168H225.22H225.272H225.324H225.376H225.427H225.479H225.531H225.557H225.609H225.687H225.713H225.765H225.843H225.869C228.102 33.1658 229.876 34.0241 231.192 35.7406C232.516 37.4831 232.958 39.4597 232.438 41.7224C232.438 41.7224 232.438 41.7484 232.438 41.7744C232.386 41.8005 232.386 41.8525 232.36 41.9305C232.36 42.0085 232.334 42.1126 232.308 42.2686C232.282 42.3986 232.257 42.5807 232.179 42.7888C232.127 42.9968 232.023 43.2829 231.971 43.595C231.919 43.9331 231.815 44.2972 231.685 44.7134C231.599 45.1468 231.478 45.641 231.322 46.1958C231.192 46.768 231.036 47.3922 230.854 48.1204C230.439 49.7329 229.582 51.0593 228.284 52.0736C227.011 53.1139 225.531 53.6081 223.818 53.6081C223.818 53.6081 223.792 53.6081 223.74 53.6081C223.688 53.6081 223.636 53.6081 223.532 53.6081C223.454 53.6081 223.298 53.6081 223.142 53.6081C222.961 53.6081 222.727 53.6081 222.467 53.6081C222.19 53.6081 221.853 53.6081 221.455 53.6081C221.039 53.6081 220.598 53.6081 220.027 53.6081C219.481 53.6081 218.884 53.6081 218.157 53.6081C217.482 53.6081 216.677 53.6081 215.794 53.6081C214.911 53.6081 213.899 53.6081 212.808 53.6081C211.717 53.6081 210.497 53.6081 209.173 53.6081C207.822 53.6081 206.394 53.6081 204.784 53.6081C203.201 53.6081 201.487 53.6081 199.617 53.6081C199.617 53.6081 199.617 53.5561 199.643 53.5301C199.643 53.478 199.643 53.426 199.669 53.322C199.695 53.218 199.747 53.1139 199.799 52.9579C199.825 52.7758 199.877 52.5418 199.955 52.3077C200.007 52.0216 200.111 51.6835 200.162 51.3194C200.266 50.9553 200.344 50.4871 200.474 49.967C200.604 49.4468 200.76 48.8746 200.89 48.1984C201.097 47.5222 201.227 46.742 201.461 45.9097C201.487 45.9097 201.487 45.9097 201.539 45.9097C201.573 45.9097 201.634 45.9097 201.72 45.9097C201.824 45.9097 201.902 45.9097 202.084 45.9097C202.24 45.9097 202.447 45.9097 202.681 45.9097C202.915 45.9097 203.201 45.9097 203.564 45.9097C203.902 45.9097 204.317 45.9097 204.784 45.9097C205.252 45.9097 205.797 45.9097 206.42 45.9097C207.043 45.9097 207.745 45.9097 208.498 45.9097C209.303 45.9097 210.159 45.9097 211.146 45.9097C212.133 45.9097 213.206 45.9097 214.366 45.9097C215.534 45.9097 216.807 45.9097 218.209 45.9097C219.611 45.9097 221.117 45.9097 222.727 45.9097C223.194 45.9097 223.532 45.6756 223.714 45.1815C223.714 45.1815 223.714 45.1555 223.714 45.1295C223.714 45.0775 223.714 45.0254 223.74 44.9474C223.792 44.8694 223.818 44.7394 223.844 44.6093C223.869 44.4533 223.921 44.2192 223.999 44.0111C224.051 43.7771 224.129 43.491 224.207 43.1269C224.259 42.7887 224.363 42.3986 224.467 41.9305C224.571 41.6184 224.545 41.3323 224.389 41.1242C224.207 40.8902 223.973 40.7601 223.688 40.7601C223.688 40.7601 223.662 40.7601 223.636 40.7601C223.558 40.7601 223.532 40.7601 223.454 40.7601C223.376 40.7601 223.246 40.7601 223.116 40.7601C222.961 40.7601 222.77 40.7601 222.545 40.7601C222.303 40.7601 222.026 40.7601 221.714 40.7601C221.377 40.7601 221.013 40.7601 220.572 40.7601C220.13 40.7601 219.611 40.7601 219.014 40.7601C218.443 40.7601 217.767 40.7601 217.04 40.7601C216.296 40.7601 215.465 40.7601 214.548 40.7601C213.639 40.7601 212.626 40.7601 211.536 40.7601C209.303 40.7601 207.537 39.9019 206.213 38.2114C205.044 36.7549 204.577 35.0644 204.784 33.1658H213.847Z" fill="white"/>
<g clip-path="url(#clip0_5038_31139)">
<path d="M118.425 21.9987C121.876 20.0031 126.174 17.1582 129.786 11.6839C133.398 6.20964 130.633 0 130.633 0C130.62 3.43412 128.76 9.33922 123.336 13.1026C118.688 16.3362 115.796 13.5681 118.007 10.5475C120.218 7.52684 122.492 7.03413 122.492 7.03413C122.492 7.03413 117.703 6.75682 114.63 9.98792C110.138 14.7095 108.895 20.5973 106.886 21.2782C105.261 21.8278 103.751 20.2631 105.264 18.0298C106.777 15.7965 109.715 13.8454 109.012 10.9412C107.066 15.4919 103.661 14.6674 99.0686 19.3965C92.1876 26.4702 93.5789 40.276 104.816 40.0854C117.012 39.8774 119.32 30.7239 120.677 26.3588C122.034 21.9937 123.579 21.8749 123.579 21.8749C123.579 21.8749 121.205 21.8551 119.592 25.1109C117.98 28.3668 116.187 28.3123 115.625 27.4606C115.063 26.6089 114.983 23.9943 118.425 21.9987Z" fill="white"/>
<path d="M117.543 18.4624C112.963 20.7304 111.146 26.2542 110.975 29.1807C110.696 34.2762 105.454 39.3048 101.684 35.7073C99.1837 33.318 101.091 28.0443 105.576 26.2294C111.07 24.0134 110.686 19.8365 117.543 18.4624Z" fill="url(#paint1_linear_5038_31139)"/>
<path d="M107.881 50.7921C114.486 44.0692 114.486 33.1691 107.881 26.4462C101.277 19.7232 90.5688 19.7232 83.9643 26.4462C77.3598 33.1691 77.3598 44.0692 83.9643 50.7921C90.5688 57.515 101.277 57.5151 107.881 50.7921Z" fill="white"/>
<path d="M125.417 22.6476C124.888 22.9855 124.406 23.3944 123.985 23.8633C123.583 24.3299 123.255 24.8569 123.012 25.4256C122.506 26.5521 122.282 27.7951 122.058 29.0479C121.834 30.3007 121.62 31.5808 121.316 32.8534C121.171 33.5142 120.975 34.1624 120.73 34.7921C120.471 35.4364 120.145 36.0506 119.757 36.6242C118.977 37.7623 117.992 38.7387 116.853 39.5013C115.915 40.12 115.159 40.9848 114.664 42.0045C114.541 42.2582 114.434 42.5195 114.343 42.7868C114.253 43.0567 114.192 43.3117 114.1 43.6559C113.929 44.3047 113.723 44.9436 113.484 45.5698C112.039 49.3584 109.444 52.5795 106.078 54.7654C103.842 56.2105 101.333 57.1629 98.7127 57.5612C96.0928 57.9595 93.42 57.7949 90.8663 57.0779C88.3077 56.3689 85.9275 55.1111 83.8856 53.3888C81.3333 51.2306 79.386 48.4248 78.2406 45.2549C77.0952 42.085 76.7922 38.6635 77.3623 35.3362C77.9324 32.0089 79.3554 28.8938 81.4874 26.3058C83.6195 23.7178 86.3849 21.7487 89.5042 20.5975C90.7459 20.1432 92.0306 19.8212 93.3376 19.6369C93.6489 19.5923 93.9578 19.5502 94.2205 19.4982C94.4429 19.4623 94.6577 19.3878 94.8553 19.2778C95.317 18.964 95.7422 18.5976 96.1226 18.186L96.7939 17.5175C97.0371 17.2847 97.2803 17.0569 97.5236 16.8366C98.0211 16.3906 98.5459 15.9771 99.0948 15.5986C100.198 14.8593 101.403 14.2911 102.67 13.9125C103.276 13.7144 103.862 13.5411 104.405 13.3084C104.674 13.1979 104.936 13.0689 105.188 12.9221C105.314 12.8454 105.431 12.7637 105.56 12.6745L105.944 12.4047C106.444 12.0527 106.902 11.6412 107.306 11.1791C107.729 10.72 107.994 10.1334 108.06 9.50781C108.14 10.1738 107.993 10.8474 107.644 11.4168C107.311 11.9932 106.902 12.5205 106.428 12.984L106.08 13.3232C105.959 13.4371 105.837 13.551 105.699 13.6575C105.434 13.8711 105.153 14.064 104.859 14.2344C104.292 14.556 103.705 14.8421 103.103 15.091C102.529 15.3386 101.989 15.6085 101.469 15.9031C100.953 16.1972 100.459 16.5282 99.9899 16.8935C99.5135 17.2614 99.0579 17.6566 98.6254 18.077C98.4041 18.2875 98.1876 18.5004 97.976 18.7208C97.7644 18.9411 97.5503 19.1862 97.3071 19.4116C97.0639 19.6369 96.8425 19.8745 96.5896 20.1073C96.3137 20.3656 96.0121 20.5938 95.6896 20.7882C95.3352 20.9886 94.9505 21.1275 94.5513 21.1992C94.1962 21.271 93.88 21.3106 93.5784 21.3552C92.3891 21.5264 91.2203 21.8218 90.0904 22.2366C87.8289 23.0729 85.7673 24.3876 84.0413 26.0941C82.3091 27.7932 80.9503 29.8467 80.0543 32.1192C79.1584 34.3918 78.7457 36.8318 78.8435 39.2784C78.9314 41.7237 79.5283 44.1221 80.5947 46.3151C81.6624 48.5064 83.1687 50.4462 85.0166 52.0097C88.687 55.1566 93.717 56.5332 98.4624 55.8127C101.445 55.3717 104.258 54.133 106.616 52.2229C108.974 50.3129 110.792 47.8 111.884 44.9409C112.102 44.3739 112.291 43.7954 112.448 43.2078C112.521 42.9354 112.609 42.5665 112.725 42.2322C112.839 41.8931 112.974 41.5622 113.132 41.2419C113.762 39.9531 114.713 38.8552 115.89 38.0578C116.37 37.7195 116.826 37.3455 117.252 36.9387C117.674 36.5369 118.063 36.1005 118.415 35.6339C118.77 35.1696 119.082 34.6722 119.346 34.1483C119.612 33.6067 119.835 33.0446 120.013 32.4672C120.409 31.2762 120.742 30.0506 121.097 28.8102C121.453 27.5698 121.847 26.3046 122.528 25.1607C122.868 24.5926 123.295 24.0835 123.792 23.6528C124.281 23.2354 124.828 22.8964 125.417 22.6476Z" fill="url(#paint2_linear_5038_31139)"/>
<path d="M96.194 55.0706C105.057 55.0706 112.241 47.8859 112.241 39.0231C112.241 37.0881 111.899 35.2331 111.271 33.5153C105.871 33.5369 102.132 34.9205 99.515 36.8748C96.8675 38.8523 95.2372 41.5136 94.2443 44.272C92.7348 48.4654 92.7508 52.6559 92.8545 54.7226C93.9317 54.9506 95.0488 55.0706 96.194 55.0706Z" fill="url(#paint3_linear_5038_31139)"/>
<path d="M89.606 53.6603C89.5986 53.1425 89.6022 52.5592 89.6254 51.9242C89.7127 49.5355 90.0796 46.3654 91.2245 43.185C92.3724 39.9959 94.3213 36.7481 97.5944 34.3034C100.561 32.0873 104.509 30.6119 109.697 30.3481C109.396 29.8807 109.071 29.4299 108.725 28.9974C102.561 28.842 98.1465 30.083 94.9744 31.9772C91.454 34.0794 89.3156 37.0745 88.0211 40.2091C86.2357 44.5324 86.0874 48.9682 86.178 51.5619C87.222 52.3969 88.3725 53.1042 89.606 53.6603Z" fill="url(#paint4_linear_5038_31139)"/>
<path d="M83.0194 48.1882C83.1914 45.5357 83.7115 42.2364 85.0546 38.9841C86.5563 35.3476 89.0987 31.7476 93.3289 29.2216C96.4393 27.3642 100.382 26.1355 105.351 25.8426C102.754 24.0352 99.5976 22.9756 96.194 22.9756C87.3312 22.9756 80.1465 30.1603 80.1465 39.0231C80.1465 42.4305 81.2084 45.5898 83.0194 48.1882Z" fill="url(#paint5_linear_5038_31139)"/>
</g>
<defs>
<linearGradient id="paint0_linear_5038_31139" x1="302.414" y1="22.4222" x2="287.997" y2="52.0646" gradientUnits="userSpaceOnUse">
<stop stop-color="#54BFD4"/>
<stop offset="0.4395" stop-color="#5D57E3"/>
<stop offset="0.5114" stop-color="#6654DE"/>
<stop offset="0.6272" stop-color="#7D4CD1"/>
<stop offset="0.7724" stop-color="#A440BB"/>
<stop offset="0.9398" stop-color="#D92E9D"/>
<stop offset="0.958" stop-color="#DF2C99"/>
</linearGradient>
<linearGradient id="paint1_linear_5038_31139" x1="100.574" y1="29.0128" x2="117.549" y2="28.9037" gradientUnits="userSpaceOnUse">
<stop stop-color="#05D6D9"/>
<stop offset="1" stop-color="#F907FC"/>
</linearGradient>
<linearGradient id="paint2_linear_5038_31139" x1="77.082" y1="37.0879" x2="125.436" y2="36.7494" gradientUnits="userSpaceOnUse">
<stop stop-color="#05D6D9"/>
<stop offset="1" stop-color="#F907FC"/>
</linearGradient>
<linearGradient id="paint3_linear_5038_31139" x1="80.1465" y1="41.3156" x2="112.254" y2="41.0911" gradientUnits="userSpaceOnUse">
<stop stop-color="#05D6D9"/>
<stop offset="1" stop-color="#F907FC"/>
</linearGradient>
<linearGradient id="paint4_linear_5038_31139" x1="80.1465" y1="41.3156" x2="112.254" y2="41.0911" gradientUnits="userSpaceOnUse">
<stop stop-color="#05D6D9"/>
<stop offset="1" stop-color="#F907FC"/>
</linearGradient>
<linearGradient id="paint5_linear_5038_31139" x1="80.1465" y1="41.3156" x2="112.254" y2="41.0911" gradientUnits="userSpaceOnUse">
<stop stop-color="#05D6D9"/>
<stop offset="1" stop-color="#F907FC"/>
</linearGradient>
<clipPath id="clip0_5038_31139">
<rect width="54.5615" height="57.771" fill="white" transform="translate(77.082)"/>
</clipPath>
</defs>
</svg>
