<svg width="1055" height="159" viewBox="0 0 1055 159" fill="none" xmlns="http://www.w3.org/2000/svg">
<path d="M929.402 69.577C921.963 69.577 914.533 69.5676 907.093 69.5676C905.734 69.5676 905.697 69.6144 905.697 70.944C905.697 77.6293 905.697 84.3147 905.697 90.9906C905.697 103.462 905.697 115.934 905.697 128.406C905.697 128.855 905.697 129.305 905.659 129.745C905.631 130.11 905.453 130.288 905.097 130.325C904.797 130.363 904.497 130.363 904.207 130.363C897.704 130.363 891.202 130.363 884.699 130.363C884.474 130.363 884.249 130.363 884.024 130.353C883.415 130.307 883.256 130.157 883.209 129.52C883.181 129.071 883.19 128.621 883.19 128.181C883.19 109.399 883.19 90.6255 883.19 71.8429C883.19 71.5058 883.19 71.1687 883.19 70.8316C883.172 69.68 883.078 69.5957 881.879 69.577C881.579 69.5676 881.279 69.577 880.979 69.577C874.327 69.577 867.674 69.577 861.021 69.577C860.609 69.577 860.197 69.577 859.794 69.5301C859.363 69.4833 859.194 69.3054 859.157 68.8841C859.129 68.547 859.129 68.21 859.129 67.8729C859.129 63.0228 859.129 58.1633 859.129 53.3131C859.129 51.6184 859.129 51.6184 860.787 51.6184C871.441 51.6184 882.085 51.6184 892.738 51.6184C904.394 51.6184 916.06 51.6184 927.716 51.6184C928.278 51.6184 928.84 51.6371 929.393 51.6465C929.403 57.6295 929.402 63.6033 929.402 69.577Z" fill="white"/>
<path d="M630.546 90.7196C630.387 91.2159 630.453 91.6279 630.453 92.0211C630.443 98.7814 630.453 105.542 630.453 112.302C630.453 117.714 630.453 123.135 630.453 128.547C630.453 128.959 630.443 129.371 630.396 129.774C630.359 130.139 630.172 130.298 629.806 130.335C629.506 130.363 629.207 130.363 628.907 130.363C622.966 130.363 617.016 130.363 611.076 130.363C610.813 130.363 610.551 130.363 610.289 130.345C609.82 130.298 609.633 130.129 609.586 129.642C609.549 129.193 609.558 128.744 609.558 128.304C609.558 110.233 609.558 92.1523 609.558 74.0813C609.558 67.2087 609.558 60.3361 609.558 53.4635C609.558 53.0515 609.558 52.6395 609.605 52.2369C609.642 51.8811 609.83 51.7032 610.186 51.6564C610.486 51.619 610.785 51.619 611.085 51.619C616.323 51.619 621.551 51.619 626.789 51.619C626.939 51.619 627.089 51.6283 627.239 51.619C627.82 51.5815 628.241 51.8156 628.532 52.3212C628.888 52.9392 629.272 53.5291 629.647 54.1377C633.985 61.2537 638.314 68.3604 642.643 75.4764C646.606 81.9838 650.57 88.4912 654.543 94.9893C654.87 95.5323 655.245 96.0379 655.601 96.5623C655.62 96.581 655.667 96.581 655.714 96.5904C656.004 96.4593 656.107 96.1597 656.248 95.9069C660.417 88.8751 664.587 81.834 668.757 74.7928C670.855 71.2629 672.954 67.733 675.053 64.1938C677.302 60.4017 679.551 56.6095 681.799 52.8268C682.502 51.6471 682.371 51.619 683.917 51.619C689.08 51.619 694.233 51.619 699.396 51.619C699.733 51.619 700.071 51.6283 700.408 51.6564C700.745 51.6845 700.97 51.8811 701.008 52.2182C701.054 52.5834 701.073 52.9579 701.073 53.3324C701.083 56.6563 701.083 59.9803 701.092 63.3042C701.12 83.098 701.139 102.892 701.176 122.686C701.176 124.699 701.27 126.712 701.289 128.734C701.307 130.363 701.279 130.373 699.686 130.373C693.821 130.373 687.946 130.373 682.081 130.373C681.893 130.373 681.706 130.373 681.518 130.373C680.638 130.335 680.516 130.214 680.469 129.305C680.45 128.931 680.46 128.556 680.46 128.182C680.431 115.71 680.403 103.238 680.375 90.7665C680.375 90.3545 680.375 89.9519 680.375 89.4463C679.982 89.568 679.888 89.8676 679.747 90.1017C678.061 92.92 676.384 95.7477 674.697 98.566C670.949 104.849 667.192 111.131 663.435 117.424C662.554 118.903 661.664 120.364 660.811 121.862C660.474 122.442 660.043 122.714 659.368 122.714C656.679 122.695 653.99 122.695 651.291 122.714C650.57 122.723 650.12 122.423 649.755 121.815C648.227 119.287 646.672 116.777 645.135 114.268C641.425 108.219 637.705 102.18 633.994 96.1316C633.076 94.6335 632.167 93.1354 631.24 91.6373C631.071 91.347 630.94 91.0286 630.546 90.7196Z" fill="white"/>
<path d="M851.127 91.0659C851.127 103.5 851.127 115.935 851.127 128.369C851.127 128.818 851.127 129.268 851.08 129.708C851.042 130.139 850.855 130.307 850.443 130.345C850.18 130.373 849.918 130.373 849.655 130.373C844.39 130.373 839.114 130.373 833.849 130.373C832.537 130.373 832.546 130.363 831.684 129.315C828.489 125.457 825.294 121.618 822.099 117.76C819.475 114.596 816.87 111.422 814.247 108.266C811.511 104.961 808.756 101.656 806.02 98.3505C803.706 95.5603 801.401 92.7701 799.077 89.9892C798.88 89.7551 798.74 89.287 798.346 89.4461C798.056 89.5585 798.187 89.9798 798.187 90.2701C798.178 91.5809 798.178 92.8824 798.178 94.1933C798.178 105.504 798.178 116.824 798.178 128.135C798.178 128.584 798.187 129.034 798.149 129.474C798.093 130.167 797.925 130.316 797.259 130.363C797.034 130.382 796.81 130.373 796.585 130.373C790.232 130.373 783.879 130.373 777.526 130.373C777.264 130.373 777.002 130.373 776.739 130.354C776.261 130.307 776.083 130.148 776.037 129.652C775.999 129.202 776.008 128.753 776.008 128.313C776.008 114.905 776.008 101.506 776.008 88.0978C776.008 76.6373 776.008 65.1674 776.008 53.7068C776.008 53.2199 776.027 52.733 776.074 52.2555C776.102 51.9184 776.318 51.7125 776.655 51.675C776.955 51.6469 777.255 51.6375 777.545 51.6375C782.811 51.6375 788.086 51.6375 793.352 51.6375C793.465 51.6375 793.577 51.6469 793.689 51.6375C794.308 51.5907 794.748 51.8623 795.132 52.3304C796.191 53.6413 797.269 54.924 798.337 56.2162C801.148 59.6056 803.968 62.9951 806.779 66.3939C809.496 69.6711 812.214 72.9482 814.931 76.2253C817.292 79.0717 819.653 81.9087 822.014 84.7552C823.973 87.1147 825.922 89.4742 827.871 91.8337C828.105 92.124 828.348 92.4049 828.601 92.6858C828.667 92.7607 828.789 92.8262 828.883 92.8262C829.004 92.8169 829.042 92.6858 829.051 92.5735C829.061 92.1989 829.07 91.8244 829.07 91.4499C829.07 80.6166 829.07 69.7928 829.07 58.9596C829.07 57.1712 829.07 55.3735 829.07 53.5851C829.07 53.3604 829.07 53.1357 829.07 52.9109C829.089 51.7405 829.173 51.6375 830.363 51.6375C834.664 51.6282 838.955 51.6375 843.256 51.6375C845.383 51.6375 847.519 51.6282 849.646 51.6375C851.005 51.6469 851.108 51.7405 851.117 53.1076C851.127 54.4933 851.117 55.8697 851.117 57.2555C851.127 68.51 851.127 79.7833 851.127 91.0659Z" fill="white"/>
<path d="M714.856 130.354C711.343 130.354 707.829 130.354 704.315 130.354C703.978 130.354 703.641 130.335 703.313 130.288C703.163 130.27 703.05 130.111 703.097 129.951C703.172 129.708 703.275 129.464 703.388 129.23C704.409 127.273 705.43 125.326 706.461 123.378C707.323 121.759 708.204 120.157 709.056 118.538C710.734 115.373 712.392 112.189 714.079 109.025C716.252 104.933 718.436 100.851 720.619 96.7682C721.425 95.2513 722.221 93.7345 723.027 92.2083C725.332 87.8544 727.627 83.4911 729.942 79.1372C731.722 75.7759 733.521 72.4145 735.311 69.0531C737.325 65.261 739.34 61.4689 741.354 57.6768C742.254 56.0008 743.163 54.3248 744.062 52.6488C744.146 52.4802 744.24 52.321 744.334 52.1619C744.493 51.8903 744.737 51.7218 745.055 51.6937C745.355 51.6656 745.655 51.6563 745.955 51.6563C752.945 51.6563 759.935 51.6656 766.925 51.6563C768.377 51.6563 768.396 51.8529 767.787 52.9952C766.119 56.1225 764.451 59.2592 762.783 62.3865C761.977 63.9033 761.171 65.4202 760.375 66.9464C758.651 70.2142 756.946 73.4913 755.212 76.759C752.935 81.0474 750.649 85.3263 748.372 89.6147C747.632 91.0004 746.901 92.3862 746.17 93.7719C744.428 97.0771 742.694 100.382 740.951 103.688C738.909 107.555 736.857 111.412 734.814 115.27C732.903 118.865 731.001 122.461 729.089 126.056C728.508 127.142 727.927 128.229 727.356 129.315C727.3 129.418 727.243 129.511 727.196 129.614C726.972 130.101 726.606 130.363 726.044 130.335C725.744 130.326 725.444 130.335 725.144 130.335C721.734 130.345 718.295 130.345 714.856 130.354C714.856 130.345 714.856 130.345 714.856 130.354Z" fill="url(#paint0_linear_2907_4630)"/>
<path d="M777.821 25.4392C784.249 25.4392 790.677 25.4392 797.105 25.4392C797.442 25.4392 797.779 25.4392 798.116 25.4486C798.257 25.4486 798.444 25.4392 798.501 25.5984C798.566 25.7857 798.388 25.8419 798.257 25.9074C796.692 26.6284 795.137 27.3399 793.572 28.0516C791.529 28.9785 789.487 29.8961 787.444 30.8137C785.57 31.6564 783.696 32.4897 781.822 33.3324C780.051 34.1283 778.281 34.9241 776.51 35.7294C774.43 36.6657 772.359 37.602 770.279 38.5383C768.442 39.3717 766.606 40.205 764.769 41.0383C761.94 42.3117 759.11 43.5757 756.289 44.8585C754.312 45.748 752.345 46.6562 750.377 47.5551C748.747 48.2948 747.107 49.0345 745.477 49.7742C745.374 49.821 745.261 49.8491 745.158 49.8772C745.018 49.9146 744.858 49.7274 744.915 49.5869C745.018 49.306 745.13 49.0345 745.261 48.7629C747.116 44.9708 748.981 41.1881 750.836 37.4054C752.56 33.8848 754.284 30.3643 756.008 26.8437C756.683 25.4673 756.692 25.4673 758.21 25.4673C764.75 25.4392 771.281 25.4392 777.821 25.4392Z" fill="#53CFD2"/>
<path fill-rule="evenodd" clip-rule="evenodd" d="M5.48159 50.8794C5.91182 50.8794 37.3517 50.8794 37.9474 50.8794C38.6314 50.8794 39.4587 50.8794 40.4295 50.8794C41.3562 50.8794 42.5476 50.8794 43.8714 50.8794C45.1951 50.8794 46.7175 50.8794 48.4053 50.8794C50.1262 50.8794 52.0788 50.8794 54.2631 50.8794C56.4473 50.8794 58.8632 50.8794 61.577 50.8794C64.2577 50.8794 115.091 50.8794 118.334 50.8794H171.219C176.879 50.8794 181.446 52.9974 184.987 57.1673C188.495 61.3373 189.653 66.1691 188.495 71.6297C188.495 71.6297 188.197 73.119 187.469 76.1637C186.807 79.1753 185.616 84.5366 183.795 92.2808C182.836 96.1197 180.751 99.3299 177.574 101.845C174.397 104.393 170.657 105.618 166.487 105.618C166.454 105.618 166.421 105.618 166.288 105.618C166.222 105.618 166.024 105.618 165.825 105.618C165.582 105.618 165.273 105.618 164.898 105.618C164.534 105.618 164.038 105.618 163.442 105.618C162.824 105.618 162.085 105.618 161.225 105.618C160.298 105.618 159.305 105.618 158.081 105.618C156.912 105.618 155.544 105.618 153.977 105.618C152.455 105.618 150.701 105.618 148.748 105.618C146.763 105.618 144.545 105.618 142.096 105.618C139.68 105.618 136.967 105.618 134.054 105.618C131.076 105.618 127.866 105.618 124.358 105.618C124.358 105.618 124.358 105.585 124.358 105.552C124.324 105.618 124.258 105.75 124.225 105.949C124.192 106.114 124.159 106.313 124.093 106.578C124.027 106.809 123.96 107.173 123.894 107.504C123.795 107.868 123.696 108.299 123.563 108.795C123.464 109.324 123.298 109.854 123.166 110.483C122.968 111.112 122.835 111.807 122.637 112.601C122.471 113.362 122.239 114.222 122.041 115.215C121.809 116.175 121.578 117.234 121.313 118.392C121.081 119.551 120.75 120.808 120.452 122.165C120.121 123.522 119.79 124.978 119.426 126.6C119.029 128.188 118.632 129.876 118.202 131.663C118.202 131.663 118.202 131.663 118.169 131.663C118.169 131.663 118.103 131.663 117.97 131.663C117.904 131.663 117.705 131.663 117.474 131.663C117.209 131.663 116.845 131.663 116.382 131.663C115.951 131.663 115.389 131.663 114.694 131.663C114.032 131.663 113.172 131.663 112.146 131.663C111.186 131.663 109.994 131.663 108.604 131.663C107.281 131.663 105.714 131.663 103.905 131.663C102.151 131.663 100.099 131.663 97.8818 131.663C97.8818 131.63 97.8818 131.597 97.9149 131.465C97.9149 131.354 97.959 131.2 98.0473 131.001C98.0804 130.803 98.1466 130.505 98.2789 130.108C98.4113 129.711 98.5106 129.214 98.643 128.619C98.7754 127.99 98.9408 127.262 99.1725 126.335C99.338 125.475 99.6027 124.449 99.9337 123.224C100.232 122 100.529 120.643 100.927 119.087C101.324 117.532 101.721 115.712 102.184 113.726C102.647 111.773 103.21 109.556 103.806 107.074C104.368 104.625 105.03 101.911 105.758 98.999C106.486 96.0204 107.214 92.7772 108.075 89.203L108.671 86.7539H128.858L128.792 86.8201H162.88C164.104 86.8201 164.898 86.2575 165.262 85.0992C165.262 85.0992 166.355 80.7969 168.473 72.2254C168.638 71.4642 168.44 70.8023 167.943 70.2728C167.48 69.6771 166.851 69.4123 166.09 69.4123C166.057 69.4123 165.991 69.4123 165.891 69.4123C165.825 69.4123 165.66 69.4123 165.461 69.4123C165.229 69.4123 164.932 69.4123 164.567 69.4123C164.214 69.4123 163.751 69.4123 163.178 69.4123C162.582 69.4123 161.821 69.4123 160.96 69.4123C160.1 69.4123 159.107 69.4123 157.982 69.4123C156.834 69.4123 155.5 69.4123 153.977 69.4123H149.377V69.3131H136.967V69.4123C136.933 69.4123 136.867 69.4123 136.768 69.4123C136.702 69.4123 136.536 69.4123 136.338 69.4123C136.106 69.4123 135.808 69.4123 135.444 69.4123C135.113 69.4123 134.584 69.4123 133.988 69.4123C133.425 69.4123 132.664 69.4123 131.87 69.4123C131.01 69.4123 129.984 69.4123 128.891 69.4123C127.7 69.4123 126.376 69.4123 124.854 69.4123C123.365 69.4123 121.644 69.4123 119.724 69.4123H16.0719L16.2704 68.6181L17.4288 64.051L5.48159 50.8794ZM124.358 105.552C124.358 105.452 124.391 105.353 124.391 105.353C124.391 105.353 124.358 105.386 124.358 105.485C124.358 105.485 124.358 105.519 124.358 105.552ZM351.476 105.519H338.801C338.768 105.651 338.768 105.75 338.702 105.883C338.669 106.048 338.602 106.28 338.536 106.511C338.492 106.776 338.415 107.085 338.305 107.438C338.238 107.835 338.106 108.232 338.04 108.729C337.907 109.192 337.808 109.755 337.643 110.384C337.51 111.012 337.378 111.707 337.179 112.535C336.981 113.296 336.782 114.222 336.584 115.149C336.352 116.076 336.12 117.135 335.789 118.26C335.525 119.451 335.227 120.709 334.929 122.033C334.631 123.423 334.3 124.879 333.936 126.468C333.572 128.089 333.175 129.777 332.778 131.564H312.689L323.28 86.7539H376.794C378.018 86.7539 378.845 86.2244 379.243 85.0992C379.243 85.0992 380.235 80.7969 382.32 72.1923C382.42 71.4311 382.254 70.8354 381.725 70.2397C381.261 69.644 380.666 69.3462 379.971 69.3462H327.45L328.608 64.2165L328.873 63.5215L317.455 50.8794H384.968C390.528 50.8794 395.062 52.9974 398.537 57.1673C402.012 61.3704 403.236 66.1691 402.111 71.6297C402.111 71.6297 401.747 73.119 401.085 76.1306C400.423 79.1422 399.199 84.4704 397.478 92.2146C396.518 96.0866 394.466 99.3299 391.322 101.779C388.178 104.294 384.505 105.519 380.368 105.519H373.021L405.123 159H383.611L351.476 105.519ZM338.834 105.287C338.834 105.32 338.801 105.353 338.801 105.485C338.801 105.485 338.834 105.452 338.834 105.419C338.834 105.386 338.834 105.32 338.834 105.287ZM338.768 105.519H338.801C338.801 105.519 338.801 105.508 338.801 105.485C338.768 105.519 338.768 105.519 338.768 105.519ZM408.531 50.8794H491.4L486.866 69.28H460.887L447.715 131.663H428.521L441.957 69.28H415.183L417.335 60.5761L408.531 50.8794ZM64.5886 81.8559C70.0161 81.8559 74.3846 83.974 77.6279 88.177C80.8712 92.38 81.8309 97.1787 80.5733 102.672C80.5733 102.672 80.5733 102.672 80.5733 102.706C80.5733 102.739 80.5733 102.772 80.5402 102.871C80.5402 102.937 80.5071 103.07 80.474 103.268C80.4409 103.401 80.3416 103.698 80.2755 104.029C80.2093 104.393 80.11 104.824 79.9445 105.32C79.8121 105.883 79.6467 106.511 79.4481 107.273C79.2826 108.067 79.051 108.994 78.7862 110.019C78.5545 111.078 78.2236 112.27 77.8926 113.66C77.5617 115.017 77.1977 116.572 76.8005 118.293C75.7415 122.264 73.6565 125.442 70.5125 127.924C67.3796 130.417 63.7392 131.663 59.5913 131.663C59.5582 131.663 59.5251 131.663 59.3927 131.663C59.2935 131.663 59.128 131.663 58.8963 131.663C58.6647 131.663 58.3006 131.663 57.9035 131.663C57.4402 131.663 56.9437 131.663 56.2818 131.663C55.62 131.663 54.7926 131.663 53.7997 131.663C52.8731 131.663 51.6817 131.663 50.3579 131.663C49.0341 131.663 47.5449 131.663 45.824 131.663C44.103 131.663 42.1504 131.663 39.9993 131.663C37.8592 131.663 35.4433 131.663 32.7516 131.663C30.0709 131.663 27.1255 131.663 23.8822 131.663C20.5727 131.663 17.0316 131.663 13.1595 131.663C9.32057 131.663 5.15065 131.663 0.583588 131.663C0.583588 131.63 0.58359 131.597 0.616684 131.465C0.616684 131.365 0.649775 131.2 0.715965 130.968C0.749059 130.77 0.881441 130.472 0.94763 130.075C1.08001 129.645 1.17929 129.115 1.34476 128.519C1.51023 127.824 1.70881 127.063 1.90737 126.137C2.10594 125.21 2.33761 124.118 2.63546 122.827C2.9664 121.603 3.29735 120.113 3.69448 118.459C4.12471 116.804 4.55494 114.984 5.01827 112.932C5.01827 112.932 5.01827 112.932 5.05136 112.932C5.05136 112.932 5.15065 112.932 5.24993 112.932C5.34922 112.932 5.48159 112.932 5.68016 112.932C5.91182 112.932 6.20968 112.932 6.57372 112.932C6.93776 112.932 7.40108 112.932 8.02988 112.932C8.59249 112.932 9.32057 112.932 10.181 112.932C11.0084 112.932 11.9681 112.932 13.1595 112.932C14.2848 112.932 15.6085 112.932 17.0978 112.932C18.6202 112.932 20.3411 112.932 22.2606 112.932C24.1801 112.932 26.2981 112.932 28.6809 112.932C31.0306 112.932 33.6451 112.932 36.4913 112.932C39.3705 112.932 42.5145 112.932 45.9232 112.932C49.2658 112.932 52.9724 112.932 56.9437 112.932C58.069 112.932 58.8632 112.369 59.3266 111.178C59.3266 111.145 59.3266 111.079 59.3266 110.979C59.3597 110.913 59.3597 110.748 59.3927 110.615C59.492 110.384 59.5582 110.086 59.6244 109.689C59.7568 109.358 59.8561 108.828 59.9884 108.299C60.1539 107.703 60.2863 107.041 60.4849 106.18C60.7165 105.32 60.9151 104.36 61.1468 103.202C61.4777 102.507 61.3784 101.845 60.9482 101.249C60.518 100.687 59.9885 100.356 59.2273 100.356C59.1942 100.356 59.1611 100.356 59.0949 100.356C58.9625 100.356 58.8632 100.356 58.6978 100.356C58.4992 100.356 58.2344 100.356 57.8373 100.356C57.5064 100.356 57.0099 100.356 56.4804 100.356C55.8847 100.356 55.2559 100.356 54.4616 100.356C53.7005 100.356 52.7076 100.356 51.6155 100.356C50.5565 100.356 49.3099 100.356 47.8758 100.356C46.4527 100.356 44.8311 100.356 43.0109 100.356C41.2238 100.356 39.205 100.356 36.9546 100.356C34.7372 100.356 32.3213 100.356 29.6407 100.356C24.2132 100.356 19.8778 98.3371 16.6014 94.2333C13.7883 90.626 12.6631 86.5223 13.2257 81.8559H64.5886Z" fill="white"/>
<path d="M501.71 50.8795H531.403H531.468H531.597H531.662H531.727H531.791H531.856H531.986H532.05H532.115H532.18H532.244H532.309H532.438H532.503H532.568H532.632H532.697H533.15C533.668 50.8795 534.25 50.8795 534.961 50.8795C535.544 50.8795 536.385 50.8795 537.355 50.8795C538.39 50.8795 539.49 50.8795 540.913 50.8795C542.272 50.8795 543.824 50.8795 545.571 50.8795C547.339 50.8795 549.323 50.8795 551.522 50.8795C553.722 50.8795 556.245 50.8795 559.027 50.8795C561.744 50.8795 564.784 50.8795 568.084 50.8795C571.448 50.8795 575.113 50.8795 579.081 50.8795C583.092 50.8795 587.362 50.8795 592.02 50.8795V50.9443C592.02 50.9443 592.02 51.074 592.02 51.1387C592.02 51.2035 591.955 51.3979 591.89 51.6571C591.804 51.8731 591.718 52.1755 591.631 52.5642C591.545 52.953 591.394 53.493 591.179 54.1841C591.049 54.7673 590.79 55.5449 590.532 56.452C590.338 57.424 590.079 58.5255 589.691 59.7566C589.432 61.0525 589.044 62.5429 588.656 64.2276C588.203 65.9123 587.685 67.7265 587.168 69.8648H587.103C587.103 69.8648 587.038 69.8648 586.974 69.8648C586.887 69.8648 586.736 69.8648 586.521 69.8648C586.305 69.8648 586.003 69.8648 585.615 69.8648C585.292 69.8648 584.774 69.8648 584.127 69.8648C583.545 69.8648 582.769 69.8648 581.928 69.8648C581.087 69.8648 579.987 69.8648 578.887 69.8648C577.723 69.8648 576.364 69.8648 574.812 69.8648C573.302 69.8648 571.555 69.8648 569.571 69.8648H563.426H563.361H563.296H563.102H563.038H562.973H562.844H562.779H562.585H562.52H562.391H562.261H562.132H562.067H561.938H561.808H561.679H561.55H561.42H561.291H561.226H561.097H560.967H560.838H560.773H560.579H560.45H560.385H560.256H560.126H559.997H559.868H559.738H559.609H559.544H559.415H559.221H559.156H559.027H558.833H558.768H558.639H558.444H558.38H558.25H558.056H557.992H557.862H557.733H557.603H557.474H557.345H557.151H557.086H556.957H556.762H556.698H556.568H556.439H556.245H556.18H556.051H555.857H555.727H555.663H555.469H555.339H555.21H555.016H554.951H554.822H554.628H554.498H554.369H554.24H554.11H553.981H553.787H553.657H553.593H553.399H553.269H553.14H552.946H552.816H552.687H552.493H552.428H552.299H552.105H551.975H551.846H551.652H551.522H551.393H551.199H551.07H550.876H550.746H550.617H550.423H550.293H550.229H550.035H549.905H549.776H549.582H549.452H549.323H549.129H548.999H548.741H548.611H548.482H548.288H548.158H548.029H547.835H547.706H547.512H547.382H547.253H547.059H546.929H546.8H546.606H546.412H546.218H546.088H545.959H545.765H545.635H545.506H545.312H545.118H544.924H544.795H544.665H544.471H544.342H544.083H543.954H543.824H543.63H543.501H543.242H543.113H542.983H542.789H542.66H542.401H542.272H542.142H541.948H541.754H541.56H541.431H541.301H541.042H540.913H540.719H540.525H540.331H540.201H540.007H539.813H539.684H539.425H539.296H539.166H538.908H538.778H538.584H538.39H538.196H538.067H537.808H537.678H537.484H537.29H537.161H536.902H536.773H536.514H536.385H536.255H535.996H535.867H535.608H535.479H535.22H535.091H534.832H534.703H534.509H534.314H534.12H512.578L512.707 69.0225L513.937 64.3571L501.71 50.8795ZM532.115 82.6298H532.18H532.244H532.309H532.438H532.503H532.568H532.632H532.697H532.827H532.891H532.956H533.021H533.085H533.15H533.279H533.344H533.409H533.473H533.538H533.603H533.732H533.797H533.862H533.926H533.991H534.12H534.185H534.25H534.314H534.379H534.509H534.573H534.638H534.703H534.767H534.832H534.961H535.026H535.091H535.155H535.22H535.285H535.414H535.479H535.544H535.608H535.673H535.802H535.867H535.932H535.996H536.061H536.126H536.255H536.32H536.385H536.449H536.514H536.643H536.708H536.773H536.837H536.902H536.967H537.096H537.161H537.226H537.29H537.355H537.484H537.549H537.614H537.678H537.743H537.808H537.937H538.002H538.067H538.131H538.196H538.325H538.39H538.455H538.519H538.584H538.649H538.778H538.843H538.908H538.972H539.037H539.166H539.231H539.296H539.36H539.425H539.49H539.619H539.684H539.749H539.813H539.878H540.007H540.072H540.137H540.201H540.266H540.331H540.46H540.525H540.59H540.654H540.719H540.848H540.913H540.978H541.042H541.107H541.172H541.301H541.366H541.431H541.495H541.56H541.689H541.754H541.819H541.883H541.948H542.013H542.142H542.207H542.272H542.336H542.401H542.53H542.595H542.66H542.724H542.789H542.854H542.983H543.048H543.113H543.177H543.242H543.371H543.436H543.501H543.565H543.63H543.695H543.824H543.889H543.954H544.018H544.083H544.148H544.277H544.342H544.406H544.471H544.536H544.665H544.73H544.795H544.859H544.924H544.989H545.118H545.183H545.247H545.312H545.377H545.506H545.571H545.635H545.7H545.765H545.83H545.959H546.024H546.088H546.153H546.218H546.347H546.412H546.477H546.541H546.606H546.671H546.8H546.865H546.929H546.994H547.059H547.188H547.253H547.317H547.382H547.447H547.641H547.706H547.77H547.835H547.9H548.029H548.094H548.158H548.223H548.288H548.353H548.547H548.611H548.676H548.741H548.87H548.935H548.999H549.129H549.194H549.323H549.388H549.452H549.517H549.711H549.776H549.84H549.905H549.97H550.035H550.229H550.293H550.358H550.423H550.552H550.681H550.746H550.811H550.876H551.07H551.134H551.199H551.264H551.458H551.522H551.587H551.652H551.846H551.911H551.975H552.04H552.234H552.299H552.363H552.493H552.558H552.687H552.816H552.881H552.946H553.14H553.204H553.269H553.399H553.528H553.593H553.722H553.787H553.851H554.045H554.11H554.175H554.369H554.434H554.563H554.628H554.692H554.886H554.951H555.016H555.21H555.275H555.404H555.469H555.663H555.727H555.792H555.922H556.051H556.18H556.245H556.374H556.504H556.568H556.698H556.762H556.957H557.021H557.151H557.215H557.409H557.474H557.603H557.733H557.862H557.927H558.056H558.186H558.315H558.38H558.574H558.639H558.768H558.897H559.027H559.156H559.221H559.415H559.48H559.609H559.738H559.868H559.997H560.062H560.256H560.321H560.45H560.579H560.709H560.838H560.967H561.097H561.226H561.291H561.42H561.614H561.679H561.808H562.003H562.067C567.631 82.6298 572.051 84.7681 575.329 89.0446C578.628 93.386 579.728 98.3105 578.434 103.948C578.434 103.948 578.434 104.013 578.434 104.077C578.305 104.142 578.305 104.272 578.24 104.466C578.24 104.66 578.175 104.92 578.111 105.308C578.046 105.632 577.981 106.086 577.787 106.604C577.658 107.123 577.399 107.836 577.27 108.613C577.14 109.455 576.882 110.363 576.558 111.399C576.343 112.479 576.041 113.71 575.653 115.093C575.329 116.518 574.941 118.073 574.488 119.888C573.453 123.905 571.318 127.21 568.084 129.737C564.914 132.329 561.226 133.56 556.957 133.56C556.957 133.56 556.892 133.56 556.762 133.56C556.633 133.56 556.504 133.56 556.245 133.56C556.051 133.56 555.663 133.56 555.275 133.56C554.822 133.56 554.24 133.56 553.593 133.56C552.903 133.56 552.062 133.56 551.07 133.56C550.035 133.56 548.935 133.56 547.512 133.56C546.153 133.56 544.665 133.56 542.854 133.56C541.172 133.56 539.166 133.56 536.967 133.56C534.767 133.56 532.244 133.56 529.527 133.56C526.81 133.56 523.77 133.56 520.47 133.56C517.106 133.56 513.548 133.56 509.537 133.56C505.591 133.56 501.322 133.56 496.664 133.56C496.664 133.56 496.664 133.43 496.729 133.365C496.729 133.236 496.729 133.106 496.793 132.847C496.858 132.588 496.987 132.329 497.117 131.94C497.181 131.486 497.311 130.903 497.505 130.32C497.634 129.607 497.893 128.765 498.022 127.858C498.281 126.95 498.475 125.784 498.799 124.488C499.122 123.192 499.51 121.767 499.834 120.082C500.351 118.397 500.675 116.453 501.257 114.38C501.322 114.38 501.322 114.38 501.451 114.38C501.537 114.38 501.688 114.38 501.904 114.38C502.163 114.38 502.357 114.38 502.81 114.38C503.198 114.38 503.715 114.38 504.297 114.38C504.88 114.38 505.591 114.38 506.497 114.38C507.338 114.38 508.373 114.38 509.537 114.38C510.702 114.38 512.06 114.38 513.613 114.38C515.166 114.38 516.912 114.38 518.788 114.38C520.794 114.38 522.929 114.38 525.387 114.38C527.845 114.38 530.519 114.38 533.409 114.38C536.32 114.38 539.49 114.38 542.983 114.38C546.477 114.38 550.229 114.38 554.24 114.38C555.404 114.38 556.245 113.797 556.698 112.566C556.698 112.566 556.698 112.501 556.698 112.436C556.698 112.306 556.698 112.177 556.762 111.982C556.892 111.788 556.957 111.464 557.021 111.14C557.086 110.751 557.215 110.168 557.409 109.65C557.539 109.067 557.733 108.354 557.927 107.447C558.056 106.604 558.315 105.632 558.574 104.466C558.833 103.689 558.768 102.976 558.38 102.457C557.927 101.874 557.345 101.55 556.633 101.55C556.633 101.55 556.568 101.55 556.504 101.55C556.31 101.55 556.245 101.55 556.051 101.55C555.857 101.55 555.533 101.55 555.21 101.55C554.822 101.55 554.347 101.55 553.787 101.55C553.183 101.55 552.493 101.55 551.717 101.55C550.876 101.55 549.97 101.55 548.87 101.55C547.77 101.55 546.476 101.55 544.989 101.55C543.565 101.55 541.883 101.55 540.072 101.55C538.218 101.55 536.147 101.55 533.862 101.55C531.597 101.55 529.074 101.55 526.357 101.55C520.794 101.55 516.395 99.412 513.096 95.2003C510.184 91.5717 509.02 87.3599 509.537 82.6298H532.115Z" fill="white"/>
<g clip-path="url(#clip0_2907_4630)">
<path d="M294.383 54.8075C302.982 49.8356 313.69 42.748 322.689 29.1093C331.688 15.4707 324.798 0 324.798 0C324.767 8.55577 320.132 23.2677 306.618 32.6439C295.038 40.7 287.833 33.8036 293.341 26.278C298.849 18.7524 304.515 17.5248 304.515 17.5248C304.515 17.5248 292.584 16.8339 284.93 24.8839C273.737 36.6473 270.641 51.3161 265.635 53.0124C261.587 54.3819 257.824 50.4833 261.593 44.9193C265.363 39.3553 272.683 34.4945 270.932 27.2588C266.084 38.5966 257.6 36.5424 246.159 48.3243C229.016 65.9479 232.482 100.344 260.478 99.8687C290.863 99.3505 296.613 76.5454 299.995 65.6703C303.376 54.7952 307.224 54.4991 307.224 54.4991C307.224 54.4991 301.31 54.4497 297.292 62.5613C293.274 70.673 288.808 70.5373 287.408 68.4153C286.009 66.2933 285.809 59.7793 294.383 54.8075Z" fill="white"/>
<path d="M292.19 45.9988C280.779 51.6492 276.252 65.4112 275.828 72.7024C275.131 85.3973 262.072 97.9256 252.68 88.9627C246.45 83.0101 251.201 69.8711 262.375 65.3495C276.065 59.8287 275.107 49.4224 292.19 45.9988Z" fill="url(#paint1_linear_2907_4630)"/>
<path d="M268.119 126.544C284.574 109.795 284.574 82.6386 268.119 65.889C251.665 49.1395 224.987 49.1395 208.533 65.889C192.078 82.6386 192.078 109.795 208.533 126.544C224.987 143.294 251.665 143.294 268.119 126.544Z" fill="white"/>
<path d="M311.811 56.4238C310.493 57.2655 309.293 58.2843 308.242 59.4525C307.242 60.615 306.424 61.928 305.818 63.3449C304.558 66.1515 304 69.2482 303.443 72.3694C302.885 75.4907 302.352 78.6798 301.595 81.8505C301.233 83.4969 300.744 85.1118 300.134 86.6804C299.489 88.2858 298.676 89.8161 297.71 91.2452C295.767 94.0804 293.312 96.5131 290.475 98.413C288.139 99.9544 286.254 102.109 285.021 104.649C284.715 105.282 284.447 105.933 284.221 106.599C283.997 107.271 283.845 107.906 283.615 108.764C283.189 110.38 282.677 111.972 282.082 113.532C278.48 122.971 272.016 130.996 263.63 136.442C258.058 140.042 251.807 142.415 245.28 143.407C238.753 144.4 232.093 143.99 225.731 142.203C219.357 140.437 213.427 137.303 208.34 133.012C201.981 127.635 197.129 120.645 194.276 112.748C191.422 104.85 190.667 96.3257 192.087 88.0361C193.508 79.7465 197.053 71.9855 202.365 65.5378C207.676 59.0901 214.566 54.1843 222.338 51.3162C225.431 50.1843 228.632 49.3822 231.888 48.9228C232.664 48.8118 233.433 48.7069 234.088 48.5774C234.642 48.488 235.177 48.3023 235.67 48.0284C236.82 47.2463 237.879 46.3337 238.827 45.308L240.499 43.6425C241.105 43.0627 241.711 42.4952 242.317 41.9462C243.557 40.835 244.864 39.8048 246.232 38.8619C248.98 37.0201 251.982 35.6043 255.14 34.6611C256.649 34.1677 258.109 33.7359 259.46 33.156C260.132 32.8809 260.784 32.5594 261.412 32.1937C261.727 32.0025 262.018 31.7989 262.339 31.5769L263.296 30.9045C264.543 30.0275 265.682 29.0025 266.69 27.8511C267.743 26.7075 268.403 25.246 268.568 23.6873C268.766 25.3466 268.401 27.0248 267.532 28.4433C266.702 29.8794 265.682 31.1932 264.502 32.3479L263.636 33.193C263.333 33.4768 263.03 33.7605 262.684 34.0258C262.024 34.5581 261.325 35.0385 260.594 35.4631C259.179 36.2644 257.718 36.9771 256.218 37.5974C254.788 38.2142 253.443 38.8866 252.146 39.6206C250.862 40.3533 249.631 41.1778 248.462 42.0881C247.275 43.0047 246.14 43.9891 245.062 45.0366C244.511 45.561 243.972 46.0914 243.444 46.6404C242.917 47.1894 242.384 47.8001 241.778 48.3615C241.172 48.9228 240.62 49.515 239.99 50.0948C239.303 50.7383 238.551 51.3068 237.748 51.7912C236.865 52.2905 235.907 52.6366 234.912 52.8152C234.027 52.994 233.24 53.0927 232.488 53.2038C229.525 53.6305 226.613 54.3664 223.798 55.3998C218.164 57.4833 213.028 60.7588 208.727 65.0104C204.412 69.2436 201.026 74.3596 198.794 80.0214C196.562 85.6832 195.534 91.7622 195.778 97.8578C195.997 103.95 197.484 109.925 200.141 115.389C202.801 120.848 206.553 125.681 211.157 129.576C220.302 137.417 232.834 140.846 244.656 139.051C252.086 137.953 259.096 134.866 264.971 130.108C270.846 125.349 275.374 119.088 278.094 111.965C278.639 110.553 279.108 109.111 279.5 107.647C279.682 106.969 279.9 106.05 280.191 105.217C280.473 104.372 280.811 103.548 281.203 102.749C282.772 99.5387 285.142 96.8034 288.075 94.8168C289.272 93.9739 290.407 93.042 291.469 92.0286C292.52 91.0276 293.489 89.9404 294.365 88.7777C295.251 87.621 296.028 86.3818 296.686 85.0766C297.347 83.7273 297.903 82.3268 298.346 80.8882C299.334 77.9211 300.164 74.8677 301.049 71.7773C301.934 68.6868 302.916 65.5347 304.612 62.6848C305.459 61.2695 306.523 60.0012 307.763 58.9282C308.98 57.8883 310.345 57.0437 311.811 56.4238Z" fill="url(#paint2_linear_2907_4630)"/>
<path d="M238.997 137.201C261.078 137.201 278.978 119.301 278.978 97.2207C278.978 92.3999 278.124 87.7783 276.561 83.4988C263.107 83.5525 253.79 86.9995 247.271 91.8686C240.675 96.7953 236.613 103.426 234.139 110.298C230.379 120.745 230.419 131.186 230.677 136.335C233.361 136.903 236.144 137.201 238.997 137.201Z" fill="url(#paint3_linear_2907_4630)"/>
<path d="M222.583 133.688C222.565 132.398 222.574 130.944 222.632 129.362C222.849 123.411 223.764 115.513 226.616 107.59C229.476 99.6444 234.331 91.553 242.486 85.4622C249.878 79.941 259.712 76.2651 272.638 75.6079C271.888 74.4433 271.08 73.3202 270.217 72.2428C254.859 71.8555 243.861 74.9474 235.958 79.6665C227.188 84.904 221.86 92.3659 218.635 100.176C214.187 110.947 213.817 121.998 214.043 128.46C216.644 130.54 219.51 132.303 222.583 133.688Z" fill="url(#paint4_linear_2907_4630)"/>
<path d="M206.174 120.055C206.602 113.446 207.898 105.226 211.244 97.1235C214.986 88.0636 221.32 79.0947 231.859 72.8013C239.608 68.1739 249.43 65.1127 261.809 64.3829C255.34 59.88 247.477 57.24 238.997 57.24C216.916 57.24 199.016 75.14 199.016 97.2207C199.016 105.71 201.662 113.581 206.174 120.055Z" fill="url(#paint5_linear_2907_4630)"/>
</g>
<path d="M941.172 112.5L941.66 111.435C944.352 111.465 946.526 111.879 948.182 112.678C949.839 113.447 951.052 114.497 951.821 115.828C952.59 117.13 952.975 118.579 952.975 120.176C952.975 121.922 952.546 123.475 951.688 124.836C950.86 126.167 949.632 127.217 948.005 127.986C946.378 128.755 944.366 129.14 941.97 129.14H920.982L923.6 112.056L920.982 95.8605H941.216C944.293 95.8605 946.644 96.5853 948.271 98.0348C949.928 99.4547 950.756 101.407 950.756 103.892C950.756 105.193 950.431 106.48 949.78 107.752C949.159 108.995 948.153 110.06 946.763 110.947C945.372 111.805 943.509 112.323 941.172 112.5ZM925.242 127.764L923.645 125.679H941.749C943.938 125.679 945.638 125.191 946.851 124.214C948.094 123.209 948.715 121.774 948.715 119.91C948.715 117.928 947.99 116.405 946.541 115.34C945.091 114.275 942.947 113.743 940.107 113.743H925.73V110.37H939.885C941.778 110.37 943.346 109.853 944.588 108.817C945.86 107.782 946.496 106.273 946.496 104.291C946.496 102.842 945.979 101.658 944.943 100.741C943.938 99.7949 942.444 99.3216 940.462 99.3216H923.645L925.242 97.2361L927.638 112.056L925.242 127.764ZM984.616 110.725V114.275H961.941V110.725H984.616ZM964.559 112.5L962.03 128.119L959.811 125.501H985.814V129.14H957.77L960.521 112.5L957.77 95.8605H985.592V99.499H959.811L962.03 96.8811L964.559 112.5ZM1002.47 97.8573H1006.64V129.14H1002.47V97.8573ZM988.182 95.8605H1020.93V99.5434H988.182V95.8605ZM1022.92 120.886V117.337H1046.35V120.886H1022.92ZM1037.25 95.8605L1053.63 129.14H1049.1L1033.7 97.2804H1035.92L1020.48 129.14H1015.95L1032.33 95.8605H1037.25Z" fill="url(#paint6_linear_2907_4630)"/>
<defs>
<linearGradient id="paint0_linear_2907_4630" x1="752.773" y1="55.8625" x2="716.854" y2="129.714" gradientUnits="userSpaceOnUse">
<stop stop-color="#54BFD4"/>
<stop offset="0.4395" stop-color="#5D57E3"/>
<stop offset="0.5114" stop-color="#6654DE"/>
<stop offset="0.6272" stop-color="#7D4CD1"/>
<stop offset="0.7724" stop-color="#A440BB"/>
<stop offset="0.9398" stop-color="#D92E9D"/>
<stop offset="0.958" stop-color="#DF2C99"/>
</linearGradient>
<linearGradient id="paint1_linear_2907_4630" x1="249.914" y1="72.2839" x2="292.206" y2="72.0122" gradientUnits="userSpaceOnUse">
<stop stop-color="#05D6D9"/>
<stop offset="1" stop-color="#F907FC"/>
</linearGradient>
<linearGradient id="paint2_linear_2907_4630" x1="191.389" y1="92.4004" x2="311.857" y2="91.5569" gradientUnits="userSpaceOnUse">
<stop stop-color="#05D6D9"/>
<stop offset="1" stop-color="#F907FC"/>
</linearGradient>
<linearGradient id="paint3_linear_2907_4630" x1="199.016" y1="102.932" x2="279.008" y2="102.373" gradientUnits="userSpaceOnUse">
<stop stop-color="#05D6D9"/>
<stop offset="1" stop-color="#F907FC"/>
</linearGradient>
<linearGradient id="paint4_linear_2907_4630" x1="199.016" y1="102.932" x2="279.008" y2="102.373" gradientUnits="userSpaceOnUse">
<stop stop-color="#05D6D9"/>
<stop offset="1" stop-color="#F907FC"/>
</linearGradient>
<linearGradient id="paint5_linear_2907_4630" x1="199.016" y1="102.932" x2="279.008" y2="102.373" gradientUnits="userSpaceOnUse">
<stop stop-color="#05D6D9"/>
<stop offset="1" stop-color="#F907FC"/>
</linearGradient>
<linearGradient id="paint6_linear_2907_4630" x1="917.608" y1="114.997" x2="1054.55" y2="111.022" gradientUnits="userSpaceOnUse">
<stop stop-color="#05D6D9"/>
<stop offset="1" stop-color="#F907FC"/>
</linearGradient>
<clipPath id="clip0_2907_4630">
<rect width="135.934" height="143.931" fill="white" transform="translate(191.384)"/>
</clipPath>
</defs>
</svg>
